HIERARCHY
ROOT hip
{
  OFFSET 0 0 0
  CHANNELS 6 Xposition Yposition Zposition Zrotation Yrotation Xrotation
  JOINT abdomen
  {
    OFFSET 0 20.6881 -0.73152
    CHANNELS 3 Zrotation Xrotation Yrotation
    JOINT chest
    {
      OFFSET 0 11.7043 -0.48768
      CHANNELS 3 Zrotation Xrotation Yrotation
      JOINT neck
      {
        OFFSET 0 22.1894 -2.19456
        CHANNELS 3 Zrotation Xrotation Yrotation
        JOINT head
        {
          OFFSET -0.24384 7.07133 1.2192
          CHANNELS 3 Zrotation Xrotation Yrotation
          JOINT leftEye
          {
            OFFSET 4.14528 8.04674 8.04672
            CHANNELS 3 Zrotation Xrotation Yrotation
            End Site
            {
              OFFSET 1 0 0
            }
          }
          JOINT rightEye
          {
            OFFSET -3.6576 8.04674 8.04672
            CHANNELS 3 Zrotation Xrotation Yrotation
            End Site
            {
              OFFSET 1 0 0
            }
          }
        }
      }
      JOINT rCollar
      {
        OFFSET -2.68224 19.2634 -4.8768
        CHANNELS 3 Zrotation Xrotation Yrotation
        JOINT rShldr
        {
          OFFSET -8.77824 -1.95073 1.46304
          CHANNELS 3 Zrotation Xrotation Yrotation
          JOINT rForeArm
          {
            OFFSET -28.1742 -1.7115 0.48768
            CHANNELS 3 Zrotation Xrotation Yrotation
            JOINT rHand
            {
              OFFSET -22.5879 0.773209 7.07136
              CHANNELS 3 Zrotation Xrotation Yrotation
              JOINT rThumb1
              {
                OFFSET -1.2192 -0.487915 3.41376
                CHANNELS 3 Zrotation Xrotation Yrotation
                JOINT rThumb2
                {
                  OFFSET -3.37035 -0.52449 3.41376
                  CHANNELS 3 Zrotation Xrotation Yrotation
                  End Site
                  {
                    OFFSET -1.78271 -1.18214 1.43049
                  }
                }
              }
              JOINT rIndex1
              {
                OFFSET -7.75947 0.938293 5.60832
                CHANNELS 3 Zrotation Xrotation Yrotation
                JOINT rIndex2
                {
                  OFFSET -2.54057 -0.884171 1.56538
                  CHANNELS 3 Zrotation Xrotation Yrotation
                  End Site
                  {
                    OFFSET -1.62519 -0.234802 1.16502
                  }
                }
              }
              JOINT rMid1
              {
                OFFSET -8.24714 1.18213 3.41376
                CHANNELS 3 Zrotation Xrotation Yrotation
                JOINT rMid2
                {
                  OFFSET -3.10165 -0.590103 1.0647
                  CHANNELS 3 Zrotation Xrotation Yrotation
                  End Site
                  {
                    OFFSET -2.48547 -0.328903 0.83742
                  }
                }
              }
              JOINT rRing1
              {
                OFFSET -8.82822 0.546677 1.51678
                CHANNELS 3 Zrotation Xrotation Yrotation
                JOINT rRing2
                {
                  OFFSET -2.60934 -0.819778 -0.0198488
                  CHANNELS 3 Zrotation Xrotation Yrotation
                  End Site
                  {
                    OFFSET -2.33842 -0.294052 0.168128
                  }
                }
              }
              JOINT rPinky1
              {
                OFFSET -8.27202 -0.0477905 -0.4584
                CHANNELS 3 Zrotation Xrotation Yrotation
                JOINT rPinky2
                {
                  OFFSET -1.82734 -0.647385 -0.700984
                  CHANNELS 3 Zrotation Xrotation Yrotation
                  End Site
                  {
                    OFFSET -1.69225 -0.51767 -0.607171
                  }
                }
              }
            }
          }
        }
      }
      JOINT lCollar
      {
        OFFSET 2.68224 19.2634 -4.8768
        CHANNELS 3 Zrotation Xrotation Yrotation
        JOINT lShldr
        {
          OFFSET 8.77824 -1.95073 1.46304
          CHANNELS 3 Zrotation Xrotation Yrotation
          JOINT lForeArm
          {
            OFFSET 28.1742 -1.7115 0.48768
            CHANNELS 3 Zrotation Xrotation Yrotation
            JOINT lHand
            {
              OFFSET 22.5879 0.773209 7.07136
              CHANNELS 3 Zrotation Xrotation Yrotation
              JOINT lThumb1
              {
                OFFSET 1.2192 -0.487915 3.41376
                CHANNELS 3 Zrotation Xrotation Yrotation
                JOINT lThumb2
                {
                  OFFSET 3.37035 -0.52449 3.41376
                  CHANNELS 3 Zrotation Xrotation Yrotation
                  End Site
                  {
                    OFFSET 1.78271 -1.18214 1.43049
                  }
                }
              }
              JOINT lIndex1
              {
                OFFSET 7.75947 0.938293 5.60832
                CHANNELS 3 Zrotation Xrotation Yrotation
                JOINT lIndex2
                {
                  OFFSET 2.54057 -0.884171 1.56538
                  CHANNELS 3 Zrotation Xrotation Yrotation
                  End Site
                  {
                    OFFSET 1.62519 -0.234802 1.16502
                  }
                }
              }
              JOINT lMid1
              {
                OFFSET 8.24714 1.18213 3.41376
                CHANNELS 3 Zrotation Xrotation Yrotation
                JOINT lMid2
                {
                  OFFSET 3.10165 -0.590103 1.0647
                  CHANNELS 3 Zrotation Xrotation Yrotation
                  End Site
                  {
                    OFFSET 2.48547 -0.328903 0.83742
                  }
                }
              }
              JOINT lRing1
              {
                OFFSET 8.82822 0.546677 1.51678
                CHANNELS 3 Zrotation Xrotation Yrotation
                JOINT lRing2
                {
                  OFFSET 2.60934 -0.819778 -0.0198488
                  CHANNELS 3 Zrotation Xrotation Yrotation
                  End Site
                  {
                    OFFSET 2.33842 -0.294052 0.168128
                  }
                }
              }
              JOINT lPinky1
              {
                OFFSET 8.27202 -0.0477905 -0.4584
                CHANNELS 3 Zrotation Xrotation Yrotation
                JOINT lPinky2
                {
                  OFFSET 1.82734 -0.647385 -0.700984
                  CHANNELS 3 Zrotation Xrotation Yrotation
                  End Site
                  {
                    OFFSET 1.69225 -0.51767 -0.607171
                  }
                }
              }
            }
          }
        }
      }
    }
  }
  JOINT rButtock
  {
    OFFSET -8.77824 4.35084 1.2192
    CHANNELS 3 Zrotation Xrotation Yrotation
    JOINT rThigh
    {
      OFFSET 0 -1.70687 -2.19456
      CHANNELS 3 Zrotation Xrotation Yrotation
      JOINT rShin
      {
        OFFSET 0 -36.8199 0.73152
        CHANNELS 3 Zrotation Xrotation Yrotation
        JOINT rFoot
        {
          OFFSET 0.73152 -45.1104 -5.12064
          CHANNELS 3 Zrotation Xrotation Yrotation
          End Site
          {
            OFFSET -1.1221 -3.69964 12.103
          }
        }
      }
    }
  }
  JOINT lButtock
  {
    OFFSET 8.77824 4.35084 1.2192
    CHANNELS 3 Zrotation Xrotation Yrotation
    JOINT lThigh
    {
      OFFSET 0 -1.70687 -2.19456
      CHANNELS 3 Zrotation Xrotation Yrotation
      JOINT lShin
      {
        OFFSET 0 -36.8199 0.73152
        CHANNELS 3 Zrotation Xrotation Yrotation
        JOINT lFoot
        {
          OFFSET -0.73152 -45.1104 -5.12064
          CHANNELS 3 Zrotation Xrotation Yrotation
          End Site
          {
            OFFSET 1.1221 -3.69964 12.103
          }
        }
      }
    }
  }
}
MOTION
Frames:	4
Frame Time:	0.00833333
59.9346 84.0864 32.0779 -175.22 -22.6366 -174.715 2.53457 6.81369 5.11415 1.06606 -0.728302 1.4766 -16.8122 9.34528 -13.9488 16.593 -5.44075 -25.4893 -0.0 0.0 0.0 -0.0 0.0 0.0 5.73359e-14 -1.11187e-14 -1.49387e-13 68.8596 30.1969 20.4255 -24.3856 -19.8356 50.8534 -1.44307 -31.9763 -5.03354 -2.32505e-10 1.30862e-09 -3.91459e-10 -3.89621e-10 2.25096e-09 -6.82748e-10 -2.32503e-10 1.30863e-09 -3.91475e-10 7.73091 5.47488 0.417314 -2.32506e-10 1.30862e-09 -3.91463e-10 2.90554 0.965183 0.102902 -2.32497e-10 1.30862e-09 -3.91463e-10 10.2786 0.731801 0.0259123 -2.32509e-10 1.30863e-09 -3.91456e-10 2.22167 -0.733487 -0.20892 5.7168e-14 -1.11463e-14 -1.49536e-13 -74.2391 23.179 -2.09444 20.9328 -14.232 -40.9953 0.0181781 3.84624 -0.541376 -4.33884e-10 3.30799e-10 -4.60576e-10 -7.52308e-10 5.73766e-10 -7.98372e-10 -4.33892e-10 3.30798e-10 -4.6056e-10 -7.73091 5.47488 -0.417314 -4.33884e-10 3.30794e-10 -4.60563e-10 -2.90554 0.965183 -0.102902 -4.33898e-10 3.30797e-10 -4.60568e-10 -10.2786 0.731801 -0.0259123 -4.33887e-10 3.30798e-10 -4.60567e-10 -2.22167 -0.733487 0.20892 -2.03217e-16 0.0 -3.88251e-19 7.55463 -26.0401 -5.57436 -0.0997268 27.6456 0.396537 -1.541 -6.41318 -6.35264 2.03217e-16 0.0 3.88251e-19 12.6454 -22.1267 3.29895 0.191932 29.4437 -0.43869 1.10002 -8.78118 2.92318
60.0735 84.0323 32.3671 -175.236 -22.685 -174.475 2.69999 7.12632 5.23651 0.965784 -0.901455 1.51276 -16.7783 9.46874 -13.9298 16.5674 -6.03111 -25.3431 -0.0 0.0 0.0 -0.0 0.0 0.0 6.25057e-14 9.54092e-15 -1.7286e-13 69.4104 29.8203 20.0653 -24.6325 -20.3267 51.6869 -1.46142 -32.1523 -5.06811 -1.99843e-10 1.09344e-09 -3.38402e-10 -3.34854e-10 1.87821e-09 -5.89968e-10 -1.99841e-10 1.09344e-09 -3.38416e-10 7.73091 5.47488 0.417314 -1.99844e-10 1.09344e-09 -3.38404e-10 2.90554 0.965183 0.102902 -1.99836e-10 1.09344e-09 -3.38406e-10 10.2786 0.731801 0.0259123 -1.99849e-10 1.09344e-09 -3.38401e-10 2.22167 -0.733487 -0.20892 6.23614e-14 9.51663e-15 -1.73024e-13 -74.1979 23.0494 -2.13159 21.0866 -14.4447 -41.381 0.0187084 3.84943 -0.541846 -3.30375e-10 2.79868e-10 -3.56808e-10 -5.73309e-10 4.84879e-10 -6.18954e-10 -3.30382e-10 2.79867e-10 -3.56796e-10 -7.73091 5.47488 -0.417314 -3.30376e-10 2.79864e-10 -3.568e-10 -2.90554 0.965183 -0.102902 -3.30389e-10 2.79866e-10 -3.56803e-10 -10.2786 0.731801 -0.0259123 -3.30378e-10 2.79867e-10 -3.56804e-10 -2.22167 -0.733487 0.20892 -2.03217e-16 0.0 -3.88251e-19 7.58753 -26.3901 -5.50236 -0.100672 27.7342 0.398441 -1.54908 -6.27552 -6.48708 2.03217e-16 0.0 3.88251e-19 12.6666 -22.5664 3.21169 0.194911 29.6926 -0.442198 1.08368 -8.75988 2.8551
60.1783 83.9446 32.5829 -175.087 -22.7944 -174.646 2.90402 7.55651 5.28708 0.876527 -1.09768 1.52852 -16.7159 9.62968 -13.8802 16.5347 -6.68926 -25.1438 -0.0 0.0 0.0 -0.0 0.0 0.0 5.54553e-14 6.39172e-14 -2.27882e-13 69.809 29.5271 19.8915 -24.8567 -20.7909 52.4458 -1.48 -32.3293 -5.10299 2.0762e-10 4.29153e-10 -4.04465e-10 3.69157e-10 7.07228e-10 -6.93944e-10 2.07624e-10 4.29154e-10 -4.04475e-10 7.73091 5.47488 0.417314 2.0762e-10 4.2915e-10 -4.04465e-10 2.90554 0.965183 0.102902 2.07626e-10 4.29151e-10 -4.04468e-10 10.2786 0.731801 0.0259123 2.07614e-10 4.29156e-10 -4.04465e-10 2.22167 -0.733487 -0.20892 5.5343e-14 6.39007e-14 -2.28077e-13 -74.2093 22.8969 -2.05067 21.2767 -14.7094 -41.8695 0.0176501 3.68384 -0.518488 2.47143e-10 8.71434e-10 -2.05287e-10 4.25637e-10 1.50819e-09 -3.58562e-10 2.47138e-10 8.71433e-10 -2.0528e-10 -7.73091 5.47488 -0.417314 2.47142e-10 8.71431e-10 -2.05287e-10 -2.90554 0.965183 -0.102902 2.47131e-10 8.71433e-10 -2.05287e-10 -10.2786 0.731801 -0.0259123 2.47143e-10 8.71435e-10 -2.05292e-10 -2.22167 -0.733487 0.20892 -2.03217e-16 0.0 -3.88251e-19 7.68848 -26.6647 -5.3613 -0.101197 27.7978 0.399668 -1.56293 -6.10429 -6.68489 2.03217e-16 0.0 3.88251e-19 12.7439 -22.9606 3.13453 0.198639 29.9991 -0.446633 1.05828 -8.74899 2.74222
60.23 83.8477 32.785 -175.066 -22.9132 -174.751 3.12476 7.98726 5.30293 0.76731 -1.30026 1.53417 -16.6509 9.78255 -13.8262 16.5001 -7.30884 -24.9473 -0.0 0.0 0.0 -0.0 0.0 0.0 4.85305e-14 1.18541e-13 -2.8181e-13 70.1023 29.2852 19.828 -25.051 -21.2064 53.1204 -1.49639 -32.4838 -5.13357 7.10097e-10 -4.70167e-10 -4.48067e-10 1.23653e-09 -8.72281e-10 -7.56991e-10 7.10101e-10 -4.70168e-10 -4.48072e-10 7.73091 5.47488 0.417314 7.10097e-10 -4.7017e-10 -4.48064e-10 2.90554 0.965183 0.102902 7.10101e-10 -4.70171e-10 -4.48068e-10 10.2786 0.731801 0.0259123 7.10089e-10 -4.70166e-10 -4.48067e-10 2.22167 -0.733487 -0.20892 4.84489e-14 1.18534e-13 -2.82039e-13 -74.2342 22.7707 -1.89327 21.4783 -14.9939 -42.3986 0.0148359 3.36467 -0.473455 9.35273e-10 1.70756e-09 -1.00176e-10 1.61615e-09 2.95504e-09 -1.78777e-10 9.35271e-10 1.70756e-09 -1.00174e-10 -7.73091 5.47488 -0.417314 9.35273e-10 1.70756e-09 -1.00184e-10 -2.90554 0.965183 -0.102902 9.35264e-10 1.70756e-09 -1.0018e-10 -10.2786 0.731801 -0.0259123 9.35277e-10 1.70757e-09 -1.0019e-10 -2.22167 -0.733487 0.20892 -2.03217e-16 0.0 -3.88251e-19 7.80159 -26.9573 -5.22189 -0.101936 27.8719 0.401105 -1.57768 -5.93195 -6.89376 2.03217e-16 0.0 3.88251e-19 12.8378 -23.3557 3.08148 0.202242 30.2926 -0.45091 1.03188 -8.74273 2.62342
